ply
format ascii 1.0
element vertex 78
property float x
property float y
property float z
property uchar red
property uchar green
property uchar blue
property float s
property float t
element face 26
property list uchar uint vertex_indices
end_header
0.00000000 -5.66500000 -44.58100000 156 390 356 0.95312500 0.90722656
-5.66500000 0.00000000 -44.58100000 156 390 356 0.95312500 0.92187500
0.00000000 0.00000000 -51.94300000 156 390 356 0.96777344 0.92187500
0.00000000 0.00000000 -51.94300000 166 92 346 0.95312500 0.90722656
0.00000000 0.00000000 -51.94300000 166 92 346 0.95312500 0.92187500
0.00000000 0.00000000 -51.94300000 166 92 346 0.96777344 0.92187500
0.00000000 0.00000000 -51.94300000 346 92 166 0.95312500 0.90722656
0.00000000 0.00000000 -51.94300000 346 92 166 0.95312500 0.92187500
0.00000000 0.00000000 -51.94300000 346 92 166 0.96777344 0.92187500
0.00000000 5.66500000 -44.58100000 156 390 156 0.95312500 0.92187500
0.00000000 0.00000000 -51.94300000 156 390 156 0.96777344 0.92187500
-5.66500000 0.00000000 -44.58100000 156 390 156 0.95312500 0.90722656
5.66500000 0.00000000 -44.58100000 356 390 156 0.95312500 0.92187500
0.00000000 5.66500000 -44.58100000 356 390 156 0.95312500 0.90722656
0.00000000 0.00000000 -51.94300000 356 390 156 0.96777344 0.92187500
0.00000000 -5.66500000 -44.58100000 356 390 356 0.95312500 0.92187500
5.66500000 0.00000000 -44.58100000 356 390 356 0.95312500 0.90722656
0.00000000 0.00000000 -51.94300000 356 390 356 0.96777344 0.92187500
10.71200000 -10.71200000 13.90600000 336 466 336 0.95312500 0.92187500
0.00000000 -5.66500000 -44.58100000 336 466 336 0.96777344 0.92187500
5.66500000 0.00000000 -44.58100000 336 466 336 0.96777344 0.90722656
13.08100000 0.00000000 33.12900000 260 490 0 0.96777344 0.92187500
10.71200000 -10.71200000 13.90600000 260 490 0 0.95312500 0.92187500
5.66500000 0.00000000 -44.58100000 260 490 0 0.95312500 0.90722656
0.00000000 -13.08100000 33.12900000 346 92 346 0.95312500 0.92187500
13.08100000 0.00000000 33.12900000 346 92 346 0.96777344 0.90722656
10.71200000 -10.71200000 13.90600000 346 92 346 0.95312500 0.90722656
0.00000000 -5.66500000 -44.58100000 0 490 260 0.95312500 0.90722656
0.00000000 -13.08100000 33.12900000 0 490 260 0.96777344 0.92187500
10.71200000 -10.71200000 13.90600000 0 490 260 0.96777344 0.90722656
-10.71200000 -10.71200000 13.90600000 0 490 260 0.95312500 0.92187500
0.00000000 -5.66500000 -44.58100000 0 490 260 0.95312500 0.90722656
0.00000000 -13.08100000 33.12900000 0 490 260 0.96777344 0.92187500
-5.66500000 0.00000000 -44.58100000 176 466 336 0.95312500 0.92187500
-10.71200000 -10.71200000 13.90600000 176 466 336 0.96777344 0.92187500
0.00000000 -5.66500000 -44.58100000 176 466 336 0.96777344 0.90722656
-13.08100000 0.00000000 33.12900000 252 490 0 0.96777344 0.92187500
-5.66500000 0.00000000 -44.58100000 252 490 0 0.95312500 0.90722656
-10.71200000 -10.71200000 13.90600000 252 490 0 0.96777344 0.90722656
0.00000000 -13.08100000 33.12900000 166 92 346 0.96777344 0.90722656
-13.08100000 0.00000000 33.12900000 166 92 346 0.95312500 0.92187500
-10.71200000 -10.71200000 13.90600000 166 92 346 0.96777344 0.92187500
0.00000000 0.00000000 51.94300000 166 92 346 0.95312500 0.90722656
0.00000000 -13.08100000 33.12900000 166 92 346 0.96777344 0.90722656
-13.08100000 0.00000000 33.12900000 166 92 346 0.95312500 0.92187500
13.08100000 0.00000000 33.12900000 346 92 346 0.96777344 0.90722656
0.00000000 0.00000000 51.94300000 346 92 346 0.96777344 0.92187500
0.00000000 -13.08100000 33.12900000 346 92 346 0.95312500 0.92187500
0.00000000 13.08100000 33.12900000 346 92 166 0.96777344 0.90722656
13.08100000 0.00000000 33.12900000 346 92 166 0.95312500 0.92187500
0.00000000 0.00000000 51.94300000 346 92 166 0.96777344 0.92187500
-13.08100000 0.00000000 33.12900000 166 92 166 0.96777344 0.90722656
0.00000000 13.08100000 33.12900000 166 92 166 0.95312500 0.92187500
0.00000000 0.00000000 51.94300000 166 92 166 0.95312500 0.90722656
-10.71200000 10.71200000 13.90600000 166 92 166 0.96777344 0.92187500
-13.08100000 0.00000000 33.12900000 166 92 166 0.96777344 0.90722656
0.00000000 13.08100000 33.12900000 166 92 166 0.95312500 0.92187500
-5.66500000 0.00000000 -44.58100000 252 490 0 0.95312500 0.90722656
-10.71200000 10.71200000 13.90600000 252 490 0 0.95312500 0.92187500
-13.08100000 0.00000000 33.12900000 252 490 0 0.96777344 0.92187500
0.00000000 5.66500000 -44.58100000 176 466 176 0.95312500 0.92187500
-5.66500000 0.00000000 -44.58100000 176 466 176 0.96777344 0.90722656
-10.71200000 10.71200000 13.90600000 176 466 176 0.96777344 0.92187500
0.00000000 13.08100000 33.12900000 0 490 252 0.96777344 0.92187500
0.00000000 5.66500000 -44.58100000 0 490 252 0.95312500 0.90722656
-10.71200000 10.71200000 13.90600000 0 490 252 0.96777344 0.90722656
10.71200000 10.71200000 13.90600000 0 490 252 0.95312500 0.92187500
0.00000000 13.08100000 33.12900000 0 490 252 0.96777344 0.92187500
0.00000000 5.66500000 -44.58100000 0 490 252 0.95312500 0.90722656
13.08100000 0.00000000 33.12900000 346 92 166 0.95312500 0.92187500
10.71200000 10.71200000 13.90600000 346 92 166 0.95312500 0.90722656
0.00000000 13.08100000 33.12900000 346 92 166 0.96777344 0.90722656
5.66500000 0.00000000 -44.58100000 260 490 0 0.95312500 0.90722656
13.08100000 0.00000000 33.12900000 260 490 0 0.96777344 0.92187500
10.71200000 10.71200000 13.90600000 260 490 0 0.96777344 0.90722656
0.00000000 5.66500000 -44.58100000 336 466 176 0.96777344 0.90722656
5.66500000 0.00000000 -44.58100000 336 466 176 0.95312500 0.92187500
10.71200000 10.71200000 13.90600000 336 466 176 0.96777344 0.92187500
3 0 1 2
3 3 4 5
3 6 7 8
3 9 10 11
3 12 13 14
3 15 16 17
3 18 19 20
3 21 22 23
3 24 25 26
3 27 28 29
3 30 31 32
3 33 34 35
3 36 37 38
3 39 40 41
3 42 43 44
3 45 46 47
3 48 49 50
3 51 52 53
3 54 55 56
3 57 58 59
3 60 61 62
3 63 64 65
3 66 67 68
3 69 70 71
3 72 73 74
3 75 76 77
