# Blender v2.82 (sub 7) OBJ File: ''
# www.blender.org
mtllib Wumpa.mtl
o fg_appleShape[0][0]_Untitled
v 3.117560 15.381500 0.796655
v 1.605260 17.219000 1.262146
v 2.189570 15.654499 3.020345
v 1.559658 6.502185 -4.052444
v -0.733438 3.926887 -3.212368
v -2.521869 6.313129 -2.565864
v -0.947403 9.146179 -5.509806
v 2.637697 9.203405 -5.043789
v 5.231493 6.845550 -1.255939
v 3.149667 4.056425 -2.157382
v -2.139567 1.816749 0.492646
v -0.175244 1.680295 -0.618684
v -4.140164 4.163543 -1.284984
v -4.814311 6.677218 0.399434
v -4.270058 9.314226 -4.141155
v -0.651867 11.516801 -3.796257
v -6.321597 10.536944 -0.371406
v -3.103890 11.689801 -2.387286
v -4.498798 4.946734 2.482219
v -5.242373 7.582501 4.746079
v -6.465588 10.312758 3.991637
v -2.752444 2.089615 2.714959
v -2.821371 5.305374 5.403135
v -1.632771 2.329005 4.664638
v -1.570537 7.925866 7.542585
v -4.270058 10.661478 6.831595
v -3.010400 12.593398 4.971445
v -4.431100 12.293499 2.529054
v -0.938013 10.829752 8.201485
v 0.621880 5.181483 7.005516
v 3.018102 7.852251 6.942979
v 2.570559 2.267237 4.161623
v 0.606228 2.403691 5.272949
v 4.028615 4.944830 5.078134
v 5.835606 7.404760 3.298510
v 6.220225 10.363392 4.403832
v 3.222539 11.422696 6.842455
v -0.265812 12.682998 5.701375
v 4.175150 12.370499 3.156484
v 1.342410 12.397499 3.376343
v 6.923840 10.043434 1.797518
v 5.231493 6.845550 -1.255939
v 5.091525 4.471599 1.223968
v 3.183430 1.994378 1.939307
v 1.392606 0.489446 2.361626
v 1.125102 0.947456 3.290002
v 0.097175 0.849141 2.489290
v 0.267720 0.668105 3.816683
v 0.097175 0.849141 2.489290
v -0.709549 0.635504 3.551170
v 0.097175 0.849141 2.489290
v -1.198262 0.869924 2.658567
v 0.097175 0.849141 2.489290
v -0.930763 0.411916 1.730192
v 0.097175 0.849141 2.489290
v -0.073373 0.352358 1.245123
v 0.903898 0.723869 1.469023
v 1.392606 0.489446 2.361626
v 2.063756 1.754987 -0.010373
v 5.091525 4.471599 1.223968
v 3.183430 1.994378 1.939307
v 5.602525 10.340232 -1.973569
v 2.101430 11.606301 -3.067466
v 2.322940 11.951500 -0.255825
v -0.328812 12.510700 -1.446046
v -2.596110 12.035500 0.427828
v -0.031761 10.742278 1.301390
v -2.596110 12.035500 0.427828
v -1.503720 13.048899 2.937234
v -0.031761 10.742278 1.301390
v 2.579130 12.899299 1.718885
v -0.031761 10.742278 1.301390
v 4.665420 12.147500 1.340403
v 2.322940 11.951500 -0.255825
v 5.602525 10.340232 -1.973569
v 1.673690 14.120700 0.613342
v 0.931301 14.339099 2.392295
v 0.758633 12.366800 0.711259
v 2.189570 15.654499 3.020345
v 3.117560 15.381500 0.796655
v 0.021415 15.106800 0.860524
v -0.660713 12.639600 0.878791
v 0.201820 12.530699 2.045475
v 0.446876 10.261480 1.098148
v -0.589152 10.278070 1.233531
v 0.046978 10.379120 2.056381
v 1.605260 17.219000 1.262146
vt 0.100800 0.985800
vt 0.100800 0.985800
vt 0.100800 0.985800
vt 0.187500 0.431200
vt 0.250000 0.306900
vt 0.316200 0.431200
vt 0.250000 0.574700
vt 0.171900 0.574700
vt 0.062500 0.431200
vt 0.120000 0.306900
vt 0.369100 0.140600
vt 0.250000 0.140600
vt 0.375000 0.306900
vt 0.437500 0.431200
vt 0.328100 0.574700
vt 0.250000 0.746600
vt 0.468800 0.574700
vt 0.310800 0.747600
vt 0.500000 0.306900
vt 0.560500 0.431200
vt 0.546900 0.574700
vt 0.486100 0.138500
vt 0.623000 0.306900
vt 0.628900 0.140600
vt 0.687500 0.431200
vt 0.616200 0.574700
vt 0.625000 0.718800
vt 0.546900 0.718800
vt 0.711900 0.574700
vt 0.750000 0.306900
vt 0.812500 0.429900
vt 0.865700 0.140600
vt 0.735400 0.140600
vt 0.875000 0.306900
vt 0.937500 0.431200
vt 0.902800 0.574700
vt 0.807600 0.624500
vt 0.718800 0.718800
vt 0.875000 0.718800
vt 0.772000 0.877900
vt 0.960000 0.572800
vt 1.047900 0.431200
vt 1.000000 0.306900
vt 1.000000 0.140600
vt 1.000000 0.015100
vt 0.888200 0.015100
vt 0.888200 0.015100
vt 0.750000 0.015100
vt 0.796900 0.015100
vt 0.625000 0.015100
vt 0.692900 0.015100
vt 0.500000 0.015100
vt 0.690900 0.015100
vt 0.375000 0.015100
vt 0.250000 0.015600
vt 0.250000 0.015100
vt 0.120000 0.015100
vt 0.000000 0.015100
vt 0.126600 0.140600
vt 0.000000 0.306900
vt 0.000000 0.140600
vt 0.046900 0.625000
vt 0.184000 0.749000
vt 0.185900 0.862300
vt 0.250000 0.887700
vt 0.313000 0.863300
vt 0.244900 0.955100
vt 0.546900 0.877900
vt 0.623500 0.877900
vt 0.635300 0.935100
vt 0.897500 0.877900
vt 0.864300 0.935100
vt 0.933100 0.735800
vt 0.962900 0.877900
vt 1.024400 0.664100
vt 0.339800 0.921900
vt 0.339800 0.921900
vt 0.339800 0.921900
vt 0.339800 0.968800
vt 0.339800 0.968800
vt 0.339800 0.921900
vt 0.339800 0.921900
vt 0.339800 0.921900
vt 0.339800 0.921900
vt 0.339800 0.921900
vt 0.339800 0.921900
vt 0.339800 0.968800
vn 0.7774 0.5755 0.2538
vn 0.2084 -0.4341 -0.8764
vn -0.1802 -0.4796 -0.8588
vn -0.5378 -0.3395 -0.7717
vn -0.1648 0.0062 -0.9863
vn 0.4239 0.0880 -0.9014
vn 0.7122 -0.3436 -0.6121
vn 0.5386 -0.5369 -0.6493
vn -0.5554 -0.7556 -0.3473
vn -0.0758 -0.7840 -0.6162
vn -0.7844 -0.3655 -0.5011
vn -0.9286 -0.2977 -0.2215
vn -0.6534 0.0066 -0.7570
vn -0.0701 0.7693 -0.6350
vn -0.9043 0.3227 -0.2796
vn -0.3684 0.8480 -0.3809
vn -0.8927 -0.4152 0.1753
vn -0.8084 -0.3918 0.4393
vn -0.9429 0.2074 0.2605
vn -0.7569 -0.6177 0.2132
vn -0.5782 -0.4443 0.6843
vn -0.5004 -0.5382 0.6782
vn -0.2551 -0.2884 0.9229
vn -0.5985 0.2854 0.7485
vn -0.3265 0.8891 0.3207
vn -0.4526 0.8899 -0.0579
vn -0.0743 0.3323 0.9402
vn 0.0500 -0.3892 0.9198
vn 0.4742 -0.1702 0.8638
vn 0.5839 -0.6184 0.5259
vn 0.1060 -0.5798 0.8079
vn 0.6956 -0.4061 0.5926
vn 0.9042 -0.3147 0.2887
vn 0.8464 0.2700 0.4591
vn 0.4308 0.5537 0.7126
vn 0.0687 0.9371 0.3423
vn 0.3850 0.9031 0.1904
vn 0.0161 0.9978 -0.0640
vn 0.9783 0.2052 -0.0277
vn 0.9527 -0.2396 -0.1869
vn 0.9160 -0.3767 0.1381
vn 0.7445 -0.6062 0.2797
vn 0.2620 -0.8738 0.4098
vn 0.3035 -0.8907 0.3384
vn -0.2120 -0.8993 0.3826
vn 0.1240 -0.9083 0.3994
vn 0.2161 -0.9633 -0.1591
vn -0.2716 -0.9149 0.2985
vn 0.0720 -0.9870 -0.1439
vn -0.4121 -0.8973 0.1580
vn -0.0457 -0.9721 -0.2303
vn -0.3090 -0.9510 0.0020
vn 0.0453 -0.9621 0.2689
vn 0.0471 -0.9805 -0.1905
vn 0.2305 -0.9551 -0.1860
vn 0.1709 -0.9542 -0.2456
vn 0.4490 -0.7617 -0.4672
vn 0.7437 -0.5647 -0.3578
vn 0.6573 -0.6946 -0.2922
vn 0.6887 0.3641 -0.6270
vn 0.2883 0.8356 -0.4676
vn 0.2046 0.9739 0.0982
vn 0.0178 0.9998 0.0099
vn -0.1343 0.9805 0.1435
vn 0.0906 0.8418 0.5321
vn 0.0136 0.9091 -0.4163
vn 0.0860 0.9685 -0.2339
vn 0.3942 0.6856 -0.6120
vn -0.1176 0.9826 -0.1436
vn -0.5918 0.7653 -0.2533
vn 0.4818 0.8588 -0.1740
vn -0.1109 0.9057 -0.4092
vn 0.8243 0.4160 -0.3841
vn 0.5786 -0.4348 -0.6900
vn -0.1126 -0.2315 0.9663
vn 0.6914 -0.3070 -0.6540
vn -0.1741 -0.2686 0.9474
vn 0.5186 -0.4724 -0.7127
vn -0.8124 0.4316 -0.3920
vn -0.9156 0.0767 -0.3947
vn 0.0086 -0.0929 0.9956
vn 0.7687 -0.2239 -0.5991
vn -0.9260 -0.0932 -0.3658
vn 0.0957 -0.0018 0.9954
vn -0.7084 0.6014 -0.3695
usemtl t_fg_apple
s 1
f 1/1/1 2/2/1 3/3/1
f 4/4/2 5/5/3 6/6/4
f 7/7/5 4/4/2 6/6/4
f 8/8/6 4/4/2 7/7/5
f 8/8/6 9/9/7 4/4/2
f 9/9/7 10/10/8 4/4/2
f 4/4/2 10/10/8 5/5/3
f 11/11/9 5/5/3 12/12/10
f 13/13/11 5/5/3 11/11/9
f 6/6/4 5/5/3 13/13/11
f 5/5/3 10/10/8 12/12/10
f 6/6/4 13/13/11 14/14/12
f 6/6/4 14/14/12 15/15/13
f 6/6/4 15/15/13 7/7/5
f 7/7/5 15/15/13 16/16/14
f 8/8/6 7/7/5 16/16/14
f 15/15/13 14/14/12 17/17/15
f 18/18/16 15/15/13 17/17/15
f 16/16/14 15/15/13 18/18/16
f 14/14/12 19/19/17 20/20/18
f 14/14/12 13/13/11 19/19/17
f 21/21/19 14/14/12 20/20/18
f 14/14/12 21/21/19 17/17/15
f 19/19/17 13/13/11 22/22/20
f 22/22/20 13/13/11 11/11/9
f 20/20/18 19/19/17 23/23/21
f 23/23/21 19/19/17 24/24/22
f 24/24/22 19/19/17 22/22/20
f 20/20/18 23/23/21 25/25/23
f 26/26/24 20/20/18 25/25/23
f 21/21/19 20/20/18 26/26/24
f 21/21/19 26/26/24 27/27/25
f 21/21/19 27/27/25 28/28/26
f 17/17/15 21/21/19 28/28/26
f 25/25/23 29/29/27 26/26/24
f 26/26/24 29/29/27 27/27/25
f 25/25/23 30/30/28 31/31/29
f 25/25/23 23/23/21 30/30/28
f 25/25/23 31/31/29 29/29/27
f 30/30/28 23/23/21 24/24/22
f 32/32/30 30/30/28 33/33/31
f 34/34/32 30/30/28 32/32/30
f 31/31/29 30/30/28 34/34/32
f 30/30/28 24/24/22 33/33/31
f 31/31/29 34/34/32 35/35/33
f 31/31/29 36/36/34 37/37/35
f 29/29/27 31/31/29 37/37/35
f 35/35/33 36/36/34 31/31/29
f 38/38/36 29/29/27 37/37/35
f 27/27/25 29/29/27 38/38/36
f 37/37/35 39/39/37 40/40/38
f 37/37/35 36/36/34 39/39/37
f 37/37/35 40/40/38 38/38/36
f 35/35/33 41/41/39 36/36/34
f 36/36/34 41/41/39 39/39/37
f 35/35/33 42/42/40 41/41/39
f 35/35/33 43/43/41 42/42/40
f 35/35/33 34/34/32 43/43/41
f 43/43/41 34/34/32 44/44/42
f 44/44/42 34/34/32 32/32/30
f 32/32/30 45/45/43 44/44/42
f 46/46/44 45/45/43 32/32/30
f 45/45/43 46/46/44 47/47/45
f 48/48/46 46/46/44 32/32/30
f 46/46/44 48/48/46 49/49/47
f 48/48/46 32/32/30 33/33/31
f 48/48/46 50/50/48 51/51/49
f 48/48/46 24/24/22 50/50/48
f 33/33/31 24/24/22 48/48/46
f 52/52/50 50/50/48 22/22/20
f 50/50/48 52/52/50 53/53/51
f 22/22/20 50/50/48 24/24/22
f 52/52/50 54/54/52 55/55/53
f 54/54/52 52/52/50 22/22/20
f 54/54/52 22/22/20 11/11/9
f 11/11/9 12/12/10 54/54/52
f 54/54/52 12/12/10 56/56/54
f 54/54/52 56/56/54 55/55/53
f 57/57/55 58/58/56 55/55/53
f 56/56/54 57/57/55 55/55/53
f 59/59/57 56/56/54 12/12/10
f 57/57/55 56/56/54 59/59/57
f 12/12/10 10/10/8 59/59/57
f 10/10/8 60/60/58 59/59/57
f 59/59/57 60/60/58 61/61/59
f 58/58/56 59/59/57 61/61/59
f 58/58/56 57/57/55 59/59/57
f 9/9/7 60/60/58 10/10/8
f 9/9/7 8/8/6 62/62/60
f 8/8/6 16/16/14 63/63/61
f 62/62/60 8/8/6 63/63/61
f 62/62/60 63/63/61 64/64/62
f 65/65/63 63/63/61 16/16/14
f 65/65/63 64/64/62 63/63/61
f 18/18/16 65/65/63 16/16/14
f 18/18/16 66/66/64 65/65/63
f 66/66/64 67/67/65 65/65/63
f 65/65/63 67/67/65 64/64/62
f 17/17/15 66/66/64 18/18/16
f 17/17/15 28/28/26 68/68/66
f 27/27/25 69/69/67 28/28/26
f 69/69/67 68/68/66 28/28/26
f 69/69/67 70/70/68 68/68/66
f 40/40/38 69/69/67 38/38/36
f 38/38/36 69/69/67 27/27/25
f 70/70/68 69/69/67 40/40/38
f 71/71/69 40/40/38 39/39/37
f 40/40/38 71/71/69 72/72/70
f 73/73/71 71/71/69 39/39/37
f 74/74/72 71/71/69 73/73/71
f 71/71/69 74/74/72 72/72/70
f 39/39/37 41/41/39 73/73/71
f 75/75/73 74/74/72 73/73/71
f 73/73/71 41/41/39 75/75/73
f 41/41/39 42/42/40 75/75/73
f 76/76/74 77/77/75 78/78/76
f 76/76/74 79/79/77 77/77/75
f 80/80/78 79/79/77 76/76/74
f 81/81/79 80/80/78 76/76/74
f 82/82/80 76/76/74 78/78/76
f 81/81/79 76/76/74 82/82/80
f 79/79/77 81/81/79 77/77/75
f 81/81/79 82/82/80 77/77/75
f 78/78/76 77/77/75 83/83/81
f 77/77/75 82/82/80 83/83/81
f 78/78/76 83/83/81 84/84/82
f 85/85/83 78/78/76 84/84/82
f 82/82/80 78/78/76 85/85/83
f 82/82/80 85/85/83 83/83/81
f 83/83/81 85/85/83 86/86/84
f 84/84/82 83/83/81 86/86/84
f 87/87/85 80/80/78 81/81/79
f 87/87/85 81/81/79 79/79/77
