# 3ds Max Wavefront OBJ Exporter v0.97b - (c)2007 guruware
# File Created: 11.09.2017 14:02:34

mtllib Gem.mtl

#
# object Gem
#

v  23.9999 7.8387 9.9411
v  0.0000 -22.7040 -0.0000
v  23.9999 7.8387 -9.9411
v  9.9411 7.8387 -23.9999
v  -9.9411 7.8387 -23.9999
v  -23.9999 7.8387 -9.9411
v  -23.9999 7.8387 9.9411
v  9.9411 7.8387 23.9999
v  11.3505 16.7083 11.3505
v  0.0000 16.7083 16.0520
v  -9.9411 7.8387 23.9999
v  -11.3505 16.7083 11.3505
v  -16.0520 16.7083 -0.0000
v  -11.3505 16.7083 -11.3505
v  0.0000 16.7083 -16.0520
v  11.3505 16.7083 -11.3505
v  16.0520 16.7083 -0.0000
v  0.0000 16.7083 -0.0000
# 18 vertices

vn 0.9228 0.0479 0.3822
vn 0.0000 -1.0000 -0.0000
vn 0.9228 0.0479 -0.3822
vn 0.3822 0.0479 -0.9228
vn -0.3822 0.0479 -0.9228
vn -0.9228 0.0479 -0.3822
vn -0.9228 0.0479 0.3822
vn 0.3822 0.0479 0.9228
vn 0.2982 0.9067 0.2982
vn 0.0000 0.9067 0.4217
vn -0.3822 0.0479 0.9228
vn -0.2982 0.9067 0.2982
vn -0.4217 0.9067 -0.0000
vn -0.2982 0.9067 -0.2982
vn 0.0000 0.9067 -0.4217
vn 0.2982 0.9067 -0.2982
vn 0.4217 0.9067 -0.0000
vn 0.0000 1.0000 -0.0000
# 18 vertex normals

vt 0.0167 1.0989 0.0000
vt 0.4377 1.9675 0.0000
vt 0.0032 1.9716 0.0000
# 3 texture coords

g Gem
usemtl Material__25
s 1
f 1/1/1 2/2/2 3/3/3 
f 2/2/2 4/3/4 3/1/3 
f 4/1/4 2/2/2 5/3/5 
f 2/2/2 6/3/6 5/1/5 
f 6/1/6 2/2/2 7/3/7 
f 8/2/8 1/3/1 9/1/9 
f 10/1/10 11/2/11 8/3/8 
f 7/2/7 11/3/11 12/1/12 
f 13/1/13 6/2/6 7/3/7 
f 5/2/5 6/3/6 14/1/14 
f 15/1/15 4/2/4 5/3/5 
f 3/2/3 4/3/4 16/1/16 
f 12/1/12 11/2/11 10/3/10 
f 8/2/8 9/3/9 10/1/10 
f 9/1/9 1/2/1 17/3/17 
f 3/2/3 16/3/16 17/1/17 
f 16/1/16 4/2/4 15/3/15 
f 5/2/5 14/3/14 15/1/15 
f 14/1/14 6/2/6 13/3/13 
f 7/2/7 12/3/12 13/1/13 
f 16/1/16 18/2/18 17/3/17 
f 2/2/2 11/3/11 7/1/7 
f 11/1/11 2/2/2 8/3/8 
f 2/2/2 1/3/1 8/1/8 
f 17/1/17 1/2/1 3/3/3 
f 18/2/18 9/3/9 17/1/17 
f 18/1/18 13/2/13 12/3/12 
f 18/2/18 15/3/15 14/1/14 
f 9/1/9 18/2/18 10/3/10 
f 13/2/13 18/3/18 14/1/14 
f 18/1/18 12/2/12 10/3/10 
f 18/2/18 16/3/16 15/1/15 
# 0 polygons - 32 triangles

